<svg width="400" height="400" viewBox="0 0 400 400" fill="none" xmlns="http://www.w3.org/2000/svg">
<mask id="mask0_27_619" style="mask-type:luminance" maskUnits="userSpaceOnUse" x="20" y="20" width="360" height="360">
<path d="M200 380C299.411 380 380 299.411 380 200C380 100.589 299.411 20 200 20C100.589 20 20 100.589 20 200C20 299.411 100.589 380 200 380Z" fill="white"/>
</mask>
<g mask="url(#mask0_27_619)">
<path d="M400 0H0V165H400V0Z" fill="url(#paint0_linear_27_619)"/>
<path opacity="0.8" d="M60 130C98.6599 130 130 98.6599 130 60C130 21.3401 98.6599 -10 60 -10C21.3401 -10 -10 21.3401 -10 60C-10 98.6599 21.3401 130 60 130Z" fill="#140404"/>
<path opacity="0.6" d="M200 130C249.706 130 290 89.7056 290 40C290 -9.70563 249.706 -50 200 -50C150.294 -50 110 -9.70563 110 40C110 89.7056 150.294 130 200 130Z" fill="#140404"/>
<path opacity="0.8" d="M340 160C384.183 160 420 124.183 420 80C420 35.8172 384.183 0 340 0C295.817 0 260 35.8172 260 80C260 124.183 295.817 160 340 160Z" fill="#140404"/>
<path opacity="0.9" d="M120 170C153.137 170 180 143.137 180 110C180 76.8629 153.137 50 120 50C86.8629 50 60 76.8629 60 110C60 143.137 86.8629 170 120 170Z" fill="#2A0808"/>
<path opacity="0.9" d="M260 195C295.899 195 325 165.899 325 130C325 94.1015 295.899 65 260 65C224.101 65 195 94.1015 195 130C195 165.899 224.101 195 260 195Z" fill="#2A0808"/>
<g opacity="0.6">
<path d="M165 30H140V34H165V30Z" fill="#E74C3C"/>
<path opacity="0.8" d="M235 20H220V24H235V20Z" fill="#E74C3C"/>
<path opacity="0.7" d="M350 60H310V64H350V60Z" fill="#E74C3C"/>
</g>
<g opacity="0.5">
<path d="M30.6321 40V32.7273H35.5327V33.995H32.1697V35.728H35.2805V36.9957H32.1697V38.7322H35.5469V40H30.6321ZM36.7551 40V32.7273H39.6245C40.1737 32.7273 40.6425 32.8255 41.0307 33.022C41.4213 33.2161 41.7185 33.492 41.9221 33.8494C42.128 34.2045 42.231 34.6224 42.231 35.103C42.231 35.5859 42.1268 36.0014 41.9185 36.3494C41.7102 36.6951 41.4083 36.9602 41.013 37.1449C40.62 37.3295 40.1441 37.4219 39.5854 37.4219H37.6642V36.1861H39.3368C39.6304 36.1861 39.8742 36.1458 40.0684 36.0653C40.2625 35.9848 40.4069 35.8641 40.5016 35.7031C40.5987 35.5421 40.6472 35.3421 40.6472 35.103C40.6472 34.8615 40.5987 34.6579 40.5016 34.4922C40.4069 34.3265 40.2613 34.201 40.0648 34.1158C39.8707 34.0282 39.6257 33.9844 39.3297 33.9844H38.2928V40H36.7551ZM40.6827 36.6903L42.4902 40H40.7928L39.0243 36.6903H40.6827ZM43.3176 40V32.7273H46.187C46.7362 32.7273 47.205 32.8255 47.5932 33.022C47.9838 33.2161 48.281 33.492 48.4846 33.8494C48.6905 34.2045 48.7935 34.6224 48.7935 35.103C48.7935 35.5859 48.6893 36.0014 48.481 36.3494C48.2727 36.6951 47.9708 36.9602 47.5755 37.1449C47.1825 37.3295 46.7066 37.4219 46.1479 37.4219H44.2267V36.1861H45.8993C46.1929 36.1861 46.4367 36.1458 46.6309 36.0653C46.825 35.9848 46.9694 35.8641 47.0641 35.7031C47.1612 35.5421 47.2097 35.3421 47.2097 35.103C47.2097 34.8615 47.1612 34.6579 47.0641 34.4922C46.9694 34.3265 46.8238 34.201 46.6273 34.1158C46.4332 34.0282 46.1882 33.9844 45.8922 33.9844H44.8553V40H43.3176ZM47.2452 36.6903L49.0527 40H47.3553L45.5868 36.6903H47.2452ZM50.736 39.1548C50.5016 39.1548 50.3004 39.072 50.1323 38.9062C49.9666 38.7405 49.8837 38.5393 49.8837 38.3026C49.8837 38.0705 49.9666 37.8717 50.1323 37.706C50.3004 37.5402 50.5016 37.4574 50.736 37.4574C50.9632 37.4574 51.1621 37.5402 51.3326 37.706C51.503 37.8717 51.5882 38.0705 51.5882 38.3026C51.5882 38.4588 51.548 38.602 51.4675 38.7322C51.3894 38.8601 51.2864 38.9631 51.1586 39.0412C51.0307 39.117 50.8899 39.1548 50.736 39.1548ZM50.736 35.5859C50.5016 35.5859 50.3004 35.5031 50.1323 35.3374C49.9666 35.1716 49.8837 34.9704 49.8837 34.7337C49.8837 34.5017 49.9666 34.304 50.1323 34.1406C50.3004 33.9749 50.5016 33.892 50.736 33.892C50.9632 33.892 51.1621 33.9749 51.3326 34.1406C51.503 34.304 51.5882 34.5017 51.5882 34.7337C51.5882 34.8923 51.548 35.0367 51.4675 35.1669C51.3894 35.2947 51.2864 35.3965 51.1586 35.4723C51.0307 35.5481 50.8899 35.5859 50.736 35.5859ZM56.804 34.8189C56.7756 34.5324 56.6536 34.3099 56.4382 34.1513C56.2228 33.9927 55.9304 33.9134 55.5611 33.9134C55.3101 33.9134 55.0982 33.9489 54.9254 34.0199C54.7526 34.0885 54.62 34.1844 54.5277 34.3075C54.4377 34.4306 54.3928 34.5703 54.3928 34.7266C54.388 34.8568 54.4152 34.9704 54.4744 35.0675C54.536 35.1645 54.62 35.2486 54.7266 35.3196C54.8331 35.3883 54.9562 35.4486 55.0959 35.5007C55.2356 35.5504 55.3847 35.593 55.5433 35.6286L56.1967 35.7848C56.514 35.8558 56.8052 35.9505 57.0703 36.0689C57.3355 36.1873 57.5651 36.3329 57.7592 36.5057C57.9534 36.6785 58.1037 36.8821 58.2102 37.1165C58.3191 37.3509 58.3748 37.6196 58.3771 37.9226C58.3748 38.3677 58.2611 38.7536 58.0362 39.0803C57.8137 39.4046 57.4917 39.6567 57.0703 39.8366C56.6513 40.0142 56.1458 40.103 55.554 40.103C54.9669 40.103 54.4555 40.013 54.0199 39.8331C53.5866 39.6532 53.2481 39.3868 53.0043 39.0341C52.7628 38.679 52.6361 38.2398 52.6243 37.7166H54.1122C54.1288 37.9605 54.1986 38.1641 54.3217 38.3274C54.4472 38.4884 54.6141 38.6103 54.8224 38.6932C55.0331 38.7737 55.2711 38.8139 55.5362 38.8139C55.7966 38.8139 56.0227 38.776 56.2145 38.7003C56.4086 38.6245 56.5589 38.5192 56.6655 38.3842C56.772 38.2493 56.8253 38.0942 56.8253 37.919C56.8253 37.7557 56.7768 37.6184 56.6797 37.5071C56.585 37.3958 56.4453 37.3011 56.2607 37.223C56.0784 37.1449 55.8546 37.0739 55.5895 37.0099L54.7976 36.8111C54.1844 36.6619 53.7003 36.4287 53.3452 36.1115C52.9901 35.7943 52.8137 35.367 52.8161 34.8295C52.8137 34.3892 52.9309 34.0045 53.1676 33.6754C53.4067 33.3464 53.7346 33.0895 54.1513 32.9048C54.5679 32.7202 55.0414 32.6278 55.5717 32.6278C56.1115 32.6278 56.5826 32.7202 56.9851 32.9048C57.3899 33.0895 57.7048 33.3464 57.9297 33.6754C58.1546 34.0045 58.2706 34.3857 58.2777 34.8189H56.804ZM58.9853 32.7273H60.7076L62.3659 35.8594H62.437L64.0953 32.7273H65.8176L63.165 37.429V40H61.638V37.429L58.9853 32.7273ZM70.6028 34.8189C70.5744 34.5324 70.4525 34.3099 70.237 34.1513C70.0216 33.9927 69.7292 33.9134 69.3599 33.9134C69.109 33.9134 68.8971 33.9489 68.7243 34.0199C68.5514 34.0885 68.4189 34.1844 68.3265 34.3075C68.2366 34.4306 68.1916 34.5703 68.1916 34.7266C68.1868 34.8568 68.2141 34.9704 68.2733 35.0675C68.3348 35.1645 68.4189 35.2486 68.5254 35.3196C68.6319 35.3883 68.755 35.4486 68.8947 35.5007C69.0344 35.5504 69.1835 35.593 69.3422 35.6286L69.9956 35.7848C70.3128 35.8558 70.604 35.9505 70.8691 36.0689C71.1343 36.1873 71.3639 36.3329 71.5581 36.5057C71.7522 36.6785 71.9025 36.8821 72.0091 37.1165C72.118 37.3509 72.1736 37.6196 72.176 37.9226C72.1736 38.3677 72.06 38.7536 71.835 39.0803C71.6125 39.4046 71.2905 39.6567 70.8691 39.8366C70.4501 40.0142 69.9447 40.103 69.3528 40.103C68.7657 40.103 68.2543 40.013 67.8187 39.8331C67.3855 39.6532 67.0469 39.3868 66.8031 39.0341C66.5616 38.679 66.435 38.2398 66.4231 37.7166H67.911C67.9276 37.9605 67.9975 38.1641 68.1206 38.3274C68.246 38.4884 68.4129 38.6103 68.6213 38.6932C68.832 38.7737 69.0699 38.8139 69.335 38.8139C69.5955 38.8139 69.8216 38.776 70.0133 38.7003C70.2074 38.6245 70.3578 38.5192 70.4643 38.3842C70.5708 38.2493 70.6241 38.0942 70.6241 37.919C70.6241 37.7557 70.5756 37.6184 70.4785 37.5071C70.3838 37.3958 70.2441 37.3011 70.0595 37.223C69.8772 37.1449 69.6535 37.0739 69.3883 37.0099L68.5964 36.8111C67.9833 36.6619 67.4991 36.4287 67.144 36.1115C66.7889 35.7943 66.6125 35.367 66.6149 34.8295C66.6125 34.3892 66.7297 34.0045 66.9664 33.6754C67.2056 33.3464 67.5334 33.0895 67.9501 32.9048C68.3668 32.7202 68.8403 32.6278 69.3706 32.6278C69.9103 32.6278 70.3815 32.7202 70.7839 32.9048C71.1887 33.0895 71.5036 33.3464 71.7285 33.6754C71.9534 34.0045 72.0694 34.3857 72.0765 34.8189H70.6028ZM77.3473 40V41.147H72.571V40H77.3473ZM77.9759 40V32.7273H82.7912V33.995H79.5135V35.728H82.4716V36.9957H79.5135V40H77.9759ZM84.1708 40H82.5231L85.0337 32.7273H87.0153L89.5224 40H87.8746L86.0529 34.3892H85.9961L84.1708 40ZM84.0678 37.1413H87.9599V38.3416H84.0678V37.1413ZM91.9354 32.7273V40H90.3977V32.7273H91.9354ZM93.2005 40V32.7273H94.7381V38.7322H97.856V40H93.2005Z" fill="#C0392B"/>
<path d="M303.441 40.1598C302.83 40.1574 302.305 40.0071 301.864 39.7088C301.426 39.4105 301.089 38.9785 300.852 38.4126C300.618 37.8468 300.502 37.1662 300.504 36.3707C300.504 35.5777 300.621 34.9018 300.856 34.343C301.093 33.7843 301.43 33.3594 301.868 33.0682C302.308 32.7746 302.833 32.6278 303.441 32.6278C304.049 32.6278 304.573 32.7746 305.011 33.0682C305.451 33.3617 305.79 33.7879 306.026 34.3466C306.263 34.9029 306.38 35.5777 306.378 36.3707C306.378 37.1686 306.259 37.8504 306.023 38.4162C305.788 38.982 305.452 39.4141 305.014 39.7124C304.576 40.0107 304.052 40.1598 303.441 40.1598ZM303.441 38.8849C303.858 38.8849 304.19 38.6754 304.439 38.2564C304.688 37.8374 304.811 37.2088 304.808 36.3707C304.808 35.8191 304.751 35.3598 304.638 34.9929C304.527 34.6259 304.368 34.3501 304.162 34.1655C303.958 33.9808 303.718 33.8885 303.441 33.8885C303.027 33.8885 302.695 34.0956 302.447 34.5099C302.198 34.9242 302.073 35.5445 302.07 36.3707C302.07 36.9295 302.126 37.3958 302.237 37.7699C302.351 38.1416 302.511 38.4209 302.717 38.608C302.923 38.7926 303.164 38.8849 303.441 38.8849ZM311.938 38.9915L307.694 34.755L308.625 33.8139L312.872 38.0611L311.938 38.9915ZM308.625 38.9915L307.694 38.0611L311.938 33.8139L312.872 34.755L308.625 38.9915ZM316.984 40.0994C316.437 40.0994 315.951 40.0107 315.525 39.8331C315.101 39.6532 314.768 39.4081 314.527 39.098C314.285 38.7879 314.165 38.4363 314.165 38.0433C314.165 37.7403 314.233 37.4621 314.371 37.2088C314.51 36.9531 314.7 36.7412 314.939 36.5732C315.178 36.4027 315.445 36.2938 315.741 36.2464V36.1967C315.353 36.1186 315.038 35.9304 314.797 35.6321C314.555 35.3314 314.434 34.9822 314.434 34.5845C314.434 34.2081 314.545 33.8731 314.765 33.5795C314.985 33.2836 315.287 33.0516 315.67 32.8835C316.056 32.7131 316.494 32.6278 316.984 32.6278C317.474 32.6278 317.911 32.7131 318.295 32.8835C318.68 33.054 318.983 33.2872 319.204 33.5831C319.424 33.8767 319.535 34.2105 319.537 34.5845C319.535 34.9846 319.412 35.3338 319.168 35.6321C318.924 35.9304 318.612 36.1186 318.231 36.1967V36.2464C318.522 36.2938 318.786 36.4027 319.023 36.5732C319.262 36.7412 319.451 36.9531 319.591 37.2088C319.733 37.4621 319.805 37.7403 319.807 38.0433C319.805 38.4363 319.683 38.7879 319.442 39.098C319.2 39.4081 318.866 39.6532 318.44 39.8331C318.016 40.0107 317.531 40.0994 316.984 40.0994ZM316.984 38.9702C317.228 38.9702 317.441 38.9264 317.623 38.8388C317.806 38.7488 317.948 38.6257 318.05 38.4695C318.154 38.3108 318.206 38.1286 318.206 37.9226C318.206 37.7119 318.153 37.526 318.046 37.3651C317.939 37.2017 317.795 37.0739 317.613 36.9815C317.43 36.8868 317.221 36.8395 316.984 36.8395C316.75 36.8395 316.54 36.8868 316.356 36.9815C316.171 37.0739 316.025 37.2017 315.919 37.3651C315.815 37.526 315.763 37.7119 315.763 37.9226C315.763 38.1286 315.814 38.3108 315.915 38.4695C316.017 38.6257 316.16 38.7488 316.345 38.8388C316.53 38.9264 316.743 38.9702 316.984 38.9702ZM316.984 35.7209C317.188 35.7209 317.369 35.6795 317.528 35.5966C317.686 35.5137 317.81 35.3989 317.9 35.2521C317.99 35.1054 318.035 34.9361 318.035 34.7443C318.035 34.5549 317.99 34.3892 317.9 34.2472C317.81 34.1027 317.687 33.9903 317.531 33.9098C317.375 33.8269 317.193 33.7855 316.984 33.7855C316.778 33.7855 316.596 33.8269 316.437 33.9098C316.279 33.9903 316.154 34.1027 316.064 34.2472C315.977 34.3892 315.933 34.5549 315.933 34.7443C315.933 34.9361 315.978 35.1054 316.068 35.2521C316.158 35.3989 316.282 35.5137 316.441 35.5966C316.599 35.6795 316.781 35.7209 316.984 35.7209ZM323.596 40.0994C323.049 40.0994 322.562 40.0107 322.136 39.8331C321.712 39.6532 321.38 39.4081 321.138 39.098C320.897 38.7879 320.776 38.4363 320.776 38.0433C320.776 37.7403 320.845 37.4621 320.982 37.2088C321.122 36.9531 321.311 36.7412 321.55 36.5732C321.789 36.4027 322.057 36.2938 322.353 36.2464V36.1967C321.964 36.1186 321.65 35.9304 321.408 35.6321C321.167 35.3314 321.046 34.9822 321.046 34.5845C321.046 34.2081 321.156 33.8731 321.376 33.5795C321.596 33.2836 321.898 33.0516 322.282 32.8835C322.667 32.7131 323.105 32.6278 323.596 32.6278C324.086 32.6278 324.522 32.7131 324.906 32.8835C325.292 33.054 325.595 33.2872 325.815 33.5831C326.035 33.8767 326.146 34.2105 326.149 34.5845C326.146 34.9846 326.023 35.3338 325.779 35.6321C325.536 35.9304 325.223 36.1186 324.842 36.1967V36.2464C325.133 36.2938 325.397 36.4027 325.634 36.5732C325.873 36.7412 326.062 36.9531 326.202 37.2088C326.344 37.4621 326.416 37.7403 326.419 38.0433C326.416 38.4363 326.294 38.7879 326.053 39.098C325.811 39.4081 325.478 39.6532 325.051 39.8331C324.628 40.0107 324.142 40.0994 323.596 40.0994ZM323.596 38.9702C323.839 38.9702 324.052 38.9264 324.235 38.8388C324.417 38.7488 324.559 38.6257 324.661 38.4695C324.765 38.3108 324.817 38.1286 324.817 37.9226C324.817 37.7119 324.764 37.526 324.657 37.3651C324.551 37.2017 324.406 37.0739 324.224 36.9815C324.042 36.8868 323.832 36.8395 323.596 36.8395C323.361 36.8395 323.152 36.8868 322.967 36.9815C322.782 37.0739 322.637 37.2017 322.53 37.3651C322.426 37.526 322.374 37.7119 322.374 37.9226C322.374 38.1286 322.425 38.3108 322.527 38.4695C322.628 38.6257 322.772 38.7488 322.956 38.8388C323.141 38.9264 323.354 38.9702 323.596 38.9702ZM323.596 35.7209C323.799 35.7209 323.98 35.6795 324.139 35.5966C324.297 35.5137 324.422 35.3989 324.512 35.2521C324.602 35.1054 324.647 34.9361 324.647 34.7443C324.647 34.5549 324.602 34.3892 324.512 34.2472C324.422 34.1027 324.299 33.9903 324.142 33.9098C323.986 33.8269 323.804 33.7855 323.596 33.7855C323.39 33.7855 323.207 33.8269 323.049 33.9098C322.89 33.9903 322.766 34.1027 322.676 34.2472C322.588 34.3892 322.544 34.5549 322.544 34.7443C322.544 34.9361 322.589 35.1054 322.679 35.2521C322.769 35.3989 322.894 35.5137 323.052 35.5966C323.211 35.6795 323.392 35.7209 323.596 35.7209ZM327.536 40V32.7273H332.352V33.995H329.074V35.728H332.032V36.9957H329.074V40H327.536ZM337.181 40V41.147H332.405V40H337.181ZM343.826 35.2734H342.271C342.243 35.0722 342.185 34.8935 342.097 34.7372C342.009 34.5786 341.897 34.4437 341.76 34.3324C341.622 34.2211 341.464 34.1359 341.284 34.0767C341.106 34.0175 340.913 33.9879 340.705 33.9879C340.328 33.9879 340.001 34.0814 339.721 34.2685C339.442 34.4531 339.225 34.723 339.071 35.0781C338.917 35.4309 338.841 35.8594 338.841 36.3636C338.841 36.8821 338.917 37.3177 339.071 37.6705C339.228 38.0232 339.445 38.2895 339.725 38.4695C340.004 38.6494 340.327 38.7393 340.694 38.7393C340.9 38.7393 341.091 38.7121 341.266 38.6577C341.444 38.6032 341.601 38.5239 341.738 38.4197C341.876 38.3132 341.989 38.1842 342.079 38.0327C342.172 37.8812 342.235 37.7083 342.271 37.5142L343.826 37.5213C343.786 37.8551 343.685 38.1771 343.525 38.4872C343.366 38.795 343.152 39.0708 342.882 39.3146C342.614 39.5561 342.295 39.7479 341.923 39.8899C341.554 40.0296 341.136 40.0994 340.669 40.0994C340.021 40.0994 339.441 39.9527 338.929 39.6591C338.42 39.3655 338.018 38.9406 337.722 38.3842C337.428 37.8279 337.282 37.1544 337.282 36.3636C337.282 35.5705 337.431 34.8958 337.729 34.3395C338.027 33.7831 338.432 33.3594 338.944 33.0682C339.455 32.7746 340.03 32.6278 340.669 32.6278C341.091 32.6278 341.481 32.687 341.841 32.8054C342.203 32.9238 342.524 33.0966 342.804 33.3239C343.083 33.5488 343.31 33.8246 343.485 34.1513C343.663 34.478 343.777 34.852 343.826 35.2734ZM344.929 40V32.7273H347.798C348.348 32.7273 348.816 32.8255 349.205 33.022C349.595 33.2161 349.892 33.492 350.096 33.8494C350.302 34.2045 350.405 34.6224 350.405 35.103C350.405 35.5859 350.301 36.0014 350.092 36.3494C349.884 36.6951 349.582 36.9602 349.187 37.1449C348.794 37.3295 348.318 37.4219 347.759 37.4219H345.838V36.1861H347.511C347.804 36.1861 348.048 36.1458 348.242 36.0653C348.436 35.9848 348.581 35.8641 348.675 35.7031C348.772 35.5421 348.821 35.3421 348.821 35.103C348.821 34.8615 348.772 34.6579 348.675 34.4922C348.581 34.3265 348.435 34.201 348.239 34.1158C348.045 34.0282 347.799 33.9844 347.504 33.9844H346.467V40H344.929ZM348.857 36.6903L350.664 40H348.967L347.198 36.6903H348.857ZM353.029 32.7273V40H351.491V32.7273H353.029ZM354.017 33.995V32.7273H359.99V33.995H357.764V40H356.244V33.995H354.017Z" fill="#C0392B"/>
</g>
<path d="M400 165H0V400H400V165Z" fill="url(#paint1_linear_27_619)"/>
<path d="M0 280C66.6667 286.667 133.333 286.667 200 280C266.667 273.333 333.333 273.333 400 280" stroke="#112240" stroke-width="3"/>
<path d="M0 320C66.6667 326.667 133.333 326.667 200 320C266.667 313.333 333.333 313.333 400 320" stroke="#0D1A30" stroke-width="3"/>
<path d="M0 360C66.6667 366.667 133.333 366.667 200 360C266.667 353.333 333.333 353.333 400 360" stroke="#08101F" stroke-width="3"/>
<g opacity="0.9">
<path d="M30 235H70L55 380H45L30 235Z" fill="#060C14"/>
<path d="M100 235H140L125 400H115L100 235Z" fill="#060C14"/>
<path d="M170 235H210L195 390H185L170 235Z" fill="#060C14"/>
<path d="M320 235H360L345 380H335L320 235Z" fill="#060C14"/>
</g>
<g opacity="0.5">
<path d="M70 235H90L85 350H75L70 235Z" fill="#0A1525"/>
<path d="M220 235H240L235 370H225L220 235Z" fill="#0A1525"/>
</g>
<path d="M400 165H0V200H400V165Z" fill="#7F8C8D"/>
<path d="M400 200H0V235H400V200Z" fill="#4D565E"/>
<path d="M60 165V235" stroke="#2C3E50" stroke-width="2"/>
<path d="M120 165V235" stroke="#2C3E50" stroke-width="2"/>
<path d="M280 165V235" stroke="#2C3E50" stroke-width="2"/>
<path d="M340 165V235" stroke="#2C3E50" stroke-width="2"/>
<path d="M30 220C31.6569 220 33 218.657 33 217C33 215.343 31.6569 214 30 214C28.3431 214 27 215.343 27 217C27 218.657 28.3431 220 30 220Z" fill="#34495E"/>
<path d="M90 220C91.6569 220 93 218.657 93 217C93 215.343 91.6569 214 90 214C88.3431 214 87 215.343 87 217C87 218.657 88.3431 220 90 220Z" fill="#34495E"/>
<path d="M150 220C151.657 220 153 218.657 153 217C153 215.343 151.657 214 150 214C148.343 214 147 215.343 147 217C147 218.657 148.343 220 150 220Z" fill="#34495E"/>
<path d="M250 220C251.657 220 253 218.657 253 217C253 215.343 251.657 214 250 214C248.343 214 247 215.343 247 217C247 218.657 248.343 220 250 220Z" fill="#34495E"/>
<path d="M310 220C311.657 220 313 218.657 313 217C313 215.343 311.657 214 310 214C308.343 214 307 215.343 307 217C307 218.657 308.343 220 310 220Z" fill="#34495E"/>
<path d="M370 220C371.657 220 373 218.657 373 217C373 215.343 371.657 214 370 214C368.343 214 367 215.343 367 217C367 218.657 368.343 220 370 220Z" fill="#34495E"/>
<path d="M160 175H240V215C213.333 235 186.667 235 160 215V175Z" fill="#2C3E50" stroke="#F1C40F" stroke-width="3"/>
<path d="M200 192C202.209 192 204 190.209 204 188C204 185.791 202.209 184 200 184C197.791 184 196 185.791 196 188C196 190.209 197.791 192 200 192Z" stroke="#ECF0F1" stroke-width="2"/>
<path d="M200 192V220" stroke="#ECF0F1" stroke-width="2"/>
<path d="M188 198H212" stroke="#ECF0F1" stroke-width="2"/>
<path d="M183 210C194.333 222 205.667 222 217 210" stroke="#ECF0F1" stroke-width="2"/>
<path opacity="0.3" d="M-10 165H367" stroke="#00E5FF" stroke-width="10"/>
<path d="M-10 165H367.5" stroke="#00E5FF" stroke-width="3"/>
</g>
<path opacity="0.89" d="M302.5 146C318.792 146 332 132.792 332 116.5C332 100.208 318.792 87 302.5 87C286.208 87 273 100.208 273 116.5C273 132.792 286.208 146 302.5 146Z" fill="#2A0808"/>
<path d="M200 380C299.411 380 380 299.411 380 200C380 100.589 299.411 20 200 20C100.589 20 20 100.589 20 200C20 299.411 100.589 380 200 380Z" stroke="#111820" stroke-width="16"/>
<path d="M200 372C294.993 372 372 294.993 372 200C372 105.007 294.993 28 200 28C105.007 28 28 105.007 28 200C28 294.993 105.007 372 200 372Z" stroke="#4D565E" stroke-width="4"/>
<path d="M203 10H197C195.895 10 195 10.8954 195 12V28C195 29.1046 195.895 30 197 30H203C204.105 30 205 29.1046 205 28V12C205 10.8954 204.105 10 203 10Z" fill="#7F8C8D"/>
<path d="M203 370H197C195.895 370 195 370.895 195 372V388C195 389.105 195.895 390 197 390H203C204.105 390 205 389.105 205 388V372C205 370.895 204.105 370 203 370Z" fill="#7F8C8D"/>
<path d="M28 195H12C10.8954 195 10 195.895 10 197V203C10 204.105 10.8954 205 12 205H28C29.1046 205 30 204.105 30 203V197C30 195.895 29.1046 195 28 195Z" fill="#7F8C8D"/>
<path d="M388 195H372C370.895 195 370 195.895 370 197V203C370 204.105 370.895 205 372 205H388C389.105 205 390 204.105 390 203V197C390 195.895 389.105 195 388 195Z" fill="#7F8C8D"/>
<path opacity="0.56" d="M171.5 107C187.24 107 200 94.2401 200 78.5C200 62.7599 187.24 50 171.5 50C155.76 50 143 62.7599 143 78.5C143 94.2401 155.76 107 171.5 107Z" fill="#2A0808"/>
<defs>
<linearGradient id="paint0_linear_27_619" x1="0" y1="0" x2="0" y2="16500" gradientUnits="userSpaceOnUse">
<stop stop-color="#1F0707"/>
<stop offset="1" stop-color="#3D0C0C"/>
</linearGradient>
<linearGradient id="paint1_linear_27_619" x1="0" y1="165" x2="0" y2="23665" gradientUnits="userSpaceOnUse">
<stop stop-color="#0A1525"/>
<stop offset="1" stop-color="#02050A"/>
</linearGradient>
</defs>
</svg>
